<svg id="visual" viewBox="0 0 1200 200" width="1200" height="200" xmlns="http://www.w3.org/2000/svg" xmlns:xlink="http://www.w3.org/1999/xlink" version="1.1"><path d="M0 31L13.3 33C26.7 35 53.3 39 80 37C106.7 35 133.3 27 160 24.7C186.7 22.3 213.3 25.7 240 25.7C266.7 25.7 293.3 22.3 320 20.3C346.7 18.3 373.3 17.7 400 19.7C426.7 21.7 453.3 26.3 480 30.3C506.7 34.3 533.3 37.7 560 40.3C586.7 43 613.3 45 640 44C666.7 43 693.3 39 720 34C746.7 29 773.3 23 800 21.7C826.7 20.3 853.3 23.7 880 28C906.7 32.3 933.3 37.7 960 38.3C986.7 39 1013.3 35 1040 33C1066.7 31 1093.3 31 1120 32.3C1146.7 33.7 1173.3 36.3 1186.7 37.7L1200 39L1200 0L1186.7 0C1173.3 0 1146.7 0 1120 0C1093.3 0 1066.7 0 1040 0C1013.3 0 986.7 0 960 0C933.3 0 906.7 0 880 0C853.3 0 826.7 0 800 0C773.3 0 746.7 0 720 0C693.3 0 666.7 0 640 0C613.3 0 586.7 0 560 0C533.3 0 506.7 0 480 0C453.3 0 426.7 0 400 0C373.3 0 346.7 0 320 0C293.3 0 266.7 0 240 0C213.3 0 186.7 0 160 0C133.3 0 106.7 0 80 0C53.3 0 26.7 0 13.3 0L0 0Z" fill="#cf0f5b"></path><path d="M0 73L13.3 76C26.7 79 53.3 85 80 85.3C106.7 85.7 133.3 80.3 160 77.3C186.7 74.3 213.3 73.7 240 73.3C266.7 73 293.3 73 320 72C346.7 71 373.3 69 400 71C426.7 73 453.3 79 480 83.7C506.7 88.3 533.3 91.7 560 93C586.7 94.3 613.3 93.7 640 92C666.7 90.3 693.3 87.7 720 84.3C746.7 81 773.3 77 800 78C826.7 79 853.3 85 880 85.3C906.7 85.7 933.3 80.3 960 77C986.7 73.7 1013.3 72.3 1040 70.7C1066.7 69 1093.3 67 1120 71.3C1146.7 75.7 1173.3 86.3 1186.7 91.7L1200 97L1200 37L1186.7 35.7C1173.3 34.3 1146.7 31.7 1120 30.3C1093.3 29 1066.7 29 1040 31C1013.3 33 986.7 37 960 36.3C933.3 35.7 906.7 30.3 880 26C853.3 21.7 826.7 18.3 800 19.7C773.3 21 746.7 27 720 32C693.3 37 666.7 41 640 42C613.3 43 586.7 41 560 38.3C533.3 35.7 506.7 32.3 480 28.3C453.3 24.3 426.7 19.7 400 17.7C373.3 15.7 346.7 16.3 320 18.3C293.3 20.3 266.7 23.7 240 23.7C213.3 23.7 186.7 20.3 160 22.7C133.3 25 106.7 33 80 35C53.3 37 26.7 33 13.3 31L0 29Z" fill="#d73151"></path><path d="M0 85L13.3 91.7C26.7 98.3 53.3 111.7 80 113.7C106.7 115.7 133.3 106.3 160 102C186.7 97.7 213.3 98.3 240 97.3C266.7 96.3 293.3 93.7 320 90.7C346.7 87.7 373.3 84.3 400 85.7C426.7 87 453.3 93 480 101C506.7 109 533.3 119 560 121.3C586.7 123.7 613.3 118.3 640 112.7C666.7 107 693.3 101 720 97C746.7 93 773.3 91 800 94.3C826.7 97.7 853.3 106.3 880 105C906.7 103.7 933.3 92.3 960 86C986.7 79.7 1013.3 78.3 1040 77.7C1066.7 77 1093.3 77 1120 82C1146.7 87 1173.3 97 1186.7 102L1200 107L1200 95L1186.7 89.7C1173.3 84.3 1146.7 73.7 1120 69.3C1093.3 65 1066.7 67 1040 68.7C1013.3 70.3 986.7 71.7 960 75C933.3 78.3 906.7 83.7 880 83.3C853.3 83 826.7 77 800 76C773.3 75 746.7 79 720 82.3C693.3 85.7 666.7 88.3 640 90C613.3 91.7 586.7 92.3 560 91C533.3 89.7 506.7 86.3 480 81.7C453.3 77 426.7 71 400 69C373.3 67 346.7 69 320 70C293.3 71 266.7 71 240 71.3C213.3 71.7 186.7 72.3 160 75.3C133.3 78.3 106.7 83.7 80 83.3C53.3 83 26.7 77 13.3 74L0 71Z" fill="#dc4948"></path><path d="M0 101L13.3 106.3C26.7 111.7 53.3 122.3 80 125.7C106.7 129 133.3 125 160 122.3C186.7 119.7 213.3 118.3 240 114.3C266.7 110.3 293.3 103.7 320 102C346.7 100.3 373.3 103.7 400 109.3C426.7 115 453.3 123 480 128.3C506.7 133.7 533.3 136.3 560 135C586.7 133.7 613.3 128.3 640 126C666.7 123.7 693.3 124.3 720 121.7C746.7 119 773.3 113 800 114.3C826.7 115.7 853.3 124.3 880 122.3C906.7 120.3 933.3 107.7 960 102C986.7 96.3 1013.3 97.7 1040 98.3C1066.7 99 1093.3 99 1120 103C1146.7 107 1173.3 115 1186.7 119L1200 123L1200 105L1186.7 100C1173.3 95 1146.7 85 1120 80C1093.3 75 1066.7 75 1040 75.7C1013.3 76.3 986.7 77.7 960 84C933.3 90.3 906.7 101.7 880 103C853.3 104.3 826.7 95.7 800 92.3C773.3 89 746.7 91 720 95C693.3 99 666.7 105 640 110.7C613.3 116.3 586.7 121.7 560 119.3C533.3 117 506.7 107 480 99C453.3 91 426.7 85 400 83.7C373.3 82.3 346.7 85.7 320 88.7C293.3 91.7 266.7 94.3 240 95.3C213.3 96.3 186.7 95.7 160 100C133.3 104.3 106.7 113.7 80 111.7C53.3 109.7 26.7 96.3 13.3 89.7L0 83Z" fill="#de5e41"></path><path d="M0 183L13.3 184C26.7 185 53.3 187 80 186.7C106.7 186.3 133.3 183.7 160 182C186.7 180.3 213.3 179.7 240 173.3C266.7 167 293.3 155 320 152.7C346.7 150.3 373.3 157.7 400 162.3C426.7 167 453.3 169 480 173.3C506.7 177.7 533.3 184.3 560 181C586.7 177.7 613.3 164.3 640 160.7C666.7 157 693.3 163 720 162.3C746.7 161.7 773.3 154.3 800 151C826.7 147.7 853.3 148.3 880 155.7C906.7 163 933.3 177 960 176C986.7 175 1013.3 159 1040 152C1066.7 145 1093.3 147 1120 153.3C1146.7 159.7 1173.3 170.3 1186.7 175.7L1200 181L1200 121L1186.7 117C1173.3 113 1146.7 105 1120 101C1093.3 97 1066.7 97 1040 96.3C1013.3 95.7 986.7 94.3 960 100C933.3 105.7 906.7 118.3 880 120.3C853.3 122.3 826.7 113.7 800 112.3C773.3 111 746.7 117 720 119.7C693.3 122.3 666.7 121.7 640 124C613.3 126.3 586.7 131.7 560 133C533.3 134.3 506.7 131.7 480 126.3C453.3 121 426.7 113 400 107.3C373.3 101.7 346.7 98.3 320 100C293.3 101.7 266.7 108.3 240 112.3C213.3 116.3 186.7 117.7 160 120.3C133.3 123 106.7 127 80 123.7C53.3 120.3 26.7 109.7 13.3 104.3L0 99Z" fill="#dd723d"></path><path d="M0 201L13.3 201C26.7 201 53.3 201 80 201C106.7 201 133.3 201 160 201C186.7 201 213.3 201 240 201C266.7 201 293.3 201 320 201C346.7 201 373.3 201 400 201C426.7 201 453.3 201 480 201C506.7 201 533.3 201 560 201C586.7 201 613.3 201 640 201C666.7 201 693.3 201 720 201C746.7 201 773.3 201 800 201C826.7 201 853.3 201 880 201C906.7 201 933.3 201 960 201C986.7 201 1013.3 201 1040 201C1066.7 201 1093.3 201 1120 201C1146.7 201 1173.3 201 1186.7 201L1200 201L1200 179L1186.7 173.7C1173.3 168.3 1146.7 157.7 1120 151.3C1093.3 145 1066.7 143 1040 150C1013.3 157 986.7 173 960 174C933.3 175 906.7 161 880 153.7C853.3 146.3 826.7 145.7 800 149C773.3 152.3 746.7 159.7 720 160.3C693.3 161 666.7 155 640 158.7C613.3 162.3 586.7 175.7 560 179C533.3 182.3 506.7 175.7 480 171.3C453.3 167 426.7 165 400 160.3C373.3 155.7 346.7 148.3 320 150.7C293.3 153 266.7 165 240 171.3C213.3 177.7 186.7 178.3 160 180C133.3 181.7 106.7 184.3 80 184.7C53.3 185 26.7 183 13.3 182L0 181Z" fill="#db843d"></path></svg>